<svg xmlns="http://www.w3.org/2000/svg" xmlns:xlink="http://www.w3.org/1999/xlink" width="375" viewBox="0 0 375 375" height="375" version="1.0"><defs><clipPath id="a"><path d="M 60.648438 41.160156 L 314.148438 41.160156 L 314.148438 333.660156 L 60.648438 333.660156 Z M 60.648438 41.160156"/></clipPath><clipPath id="b"><path d="M 56.214844 35.878906 L 318.714844 35.878906 L 318.714844 338.878906 L 56.214844 338.878906 Z M 56.214844 35.878906"/></clipPath><clipPath id="c"><path d="M 78.117188 60.828125 L 297.117188 60.828125 L 297.117188 314.328125 L 78.117188 314.328125 Z M 78.117188 60.828125"/></clipPath><g id="d"><path d="M 41.484375 -5.773438 C 40.761719 -6.492188 40.21875 -7.394531 40.039062 -8.476562 L 40.039062 -27.144531 L 25.519531 -17.765625 L 25.519531 -11.183594 C 25.429688 -9.917969 23.085938 -7.484375 20.378906 -7.484375 C 17.585938 -7.484375 15.421875 -9.917969 15.421875 -11.183594 L 15.421875 -59.519531 C 15.421875 -60.78125 17.585938 -63.214844 20.378906 -63.214844 C 23.175781 -63.214844 25.429688 -60.78125 25.429688 -59.609375 L 25.429688 -51.402344 L 40.039062 -42.566406 L 40.039062 -61.140625 C 40.039062 -62.496094 40.492188 -63.667969 41.390625 -64.570312 C 41.390625 -64.570312 41.574219 -64.839844 41.484375 -65.289062 C 41.390625 -65.5625 41.121094 -65.5625 41.121094 -65.5625 C 38.417969 -65.921875 36.253906 -67.90625 36.070312 -70.070312 C 36.070312 -70.070312 36.070312 -70.25 35.980469 -70.339844 L 4.597656 -70.339844 C 4.507812 -70.25 4.507812 -70.070312 4.507812 -70.070312 C 4.328125 -67.90625 2.164062 -65.921875 -0.542969 -65.5625 C -0.542969 -65.5625 -0.8125 -65.5625 -0.902344 -65.289062 C -0.992188 -64.839844 -0.8125 -64.570312 -0.8125 -64.570312 C 0 -63.757812 0.449219 -62.675781 0.449219 -61.503906 L 0.449219 -8.835938 C 0.449219 -7.664062 0 -6.582031 -0.8125 -5.773438 C -0.8125 -5.773438 -0.992188 -5.5 -0.902344 -5.050781 C -0.8125 -4.871094 -0.542969 -4.78125 -0.542969 -4.78125 C 2.164062 -4.417969 4.328125 -2.523438 4.507812 -0.269531 C 4.507812 -0.269531 4.507812 -0.179688 4.597656 -0.0898438 C 4.6875 0 4.871094 0 4.871094 0 L 35.890625 0 C 35.800781 0.0898438 36.160156 -0.269531 36.253906 -0.269531 C 36.433594 -2.523438 38.597656 -4.417969 41.300781 -4.78125 C 41.300781 -4.78125 41.574219 -4.871094 41.664062 -5.050781 C 41.753906 -5.5 41.484375 -5.773438 41.484375 -5.773438 Z M 41.484375 -5.773438"/></g></defs><path fill="#FFF" d="M-37.5 -37.5H412.5V412.5H-37.5z"/><path fill="#FFF" d="M-37.5 -37.5H412.5V412.5H-37.5z"/><path fill="#FFF" d="M-37.5 -37.5H412.5V412.5H-37.5z"/><g clip-path="url(#a)"><path fill="#FFF" d="M 60.648438 114.332031 L 187.398438 41.25 L 314.148438 114.332031 L 314.148438 260.492188 L 187.398438 333.570312 L 60.648438 260.492188 Z M 60.648438 114.332031"/></g><g clip-path="url(#b)"><path d="M 309.621094 257.8125 L 187.464844 328.242188 L 65.308594 257.8125 L 65.308594 116.945312 L 187.464844 46.453125 L 309.621094 116.945312 L 309.621094 257.8125 M 318.714844 263.078125 L 318.714844 111.679688 L 187.464844 35.976562 L 56.214844 111.679688 L 56.214844 263.078125 L 187.464844 338.78125 Z M 318.714844 263.078125"/></g><g clip-path="url(#c)"><path d="M 78.117188 124.242188 L 187.617188 60.910156 L 297.117188 124.242188 L 297.117188 250.910156 L 187.617188 314.242188 L 78.117188 250.910156 Z M 78.117188 124.242188"/></g><g fill="#C2941C"><use x="167.107" y="164.519" xmlns:xlink="http://www.w3.org/1999/xlink" xlink:href="#d" xlink:type="simple" xlink:actuate="onLoad" xlink:show="embed"/></g><g fill="#C2941C"><use x="167.107" y="283.573" xmlns:xlink="http://www.w3.org/1999/xlink" xlink:href="#d" xlink:type="simple" xlink:actuate="onLoad" xlink:show="embed"/></g><path stroke-linecap="round" transform="matrix(7.49962 0 0 7.03583 72.365 187.42)" fill="none" d="M 0.49985 -0.000277173 L 30.202926 -0.000277173" stroke="#FFF"/></svg>