<svg xmlns="http://www.w3.org/2000/svg" xmlns:xlink="http://www.w3.org/1999/xlink" width="375" viewBox="0 0 375 375" height="375" version="1.0"><defs><clipPath id="a"><path d="M 153.257812 148.199219 L 221.507812 148.199219 L 221.507812 226.949219 L 153.257812 226.949219 Z M 153.257812 148.199219"/></clipPath><clipPath id="b"><path d="M 152.234375 146.78125 L 222.734375 146.78125 L 222.734375 228.53125 L 152.234375 228.53125 Z M 152.234375 146.78125"/></clipPath><clipPath id="c"><path d="M 157.6875 153.476562 L 216.9375 153.476562 L 216.9375 221.726562 L 157.6875 221.726562 Z M 157.6875 153.476562"/></clipPath><g id="d"><path d="M 11.140625 -1.550781 C 10.949219 -1.742188 10.800781 -1.984375 10.753906 -2.277344 L 10.753906 -7.289062 L 6.855469 -4.769531 L 6.855469 -3.003906 C 6.828125 -2.664062 6.199219 -2.011719 5.472656 -2.011719 C 4.722656 -2.011719 4.140625 -2.664062 4.140625 -3.003906 L 4.140625 -15.984375 C 4.140625 -16.324219 4.722656 -16.976562 5.472656 -16.976562 C 6.222656 -16.976562 6.828125 -16.324219 6.828125 -16.007812 L 6.828125 -13.804688 L 10.753906 -11.433594 L 10.753906 -16.421875 C 10.753906 -16.785156 10.875 -17.097656 11.117188 -17.339844 C 11.117188 -17.339844 11.164062 -17.414062 11.140625 -17.535156 C 11.117188 -17.609375 11.042969 -17.609375 11.042969 -17.609375 C 10.316406 -17.703125 9.738281 -18.238281 9.6875 -18.820312 C 9.6875 -18.820312 9.6875 -18.867188 9.664062 -18.890625 L 1.234375 -18.890625 C 1.210938 -18.867188 1.210938 -18.820312 1.210938 -18.820312 C 1.164062 -18.238281 0.582031 -17.703125 -0.144531 -17.609375 C -0.144531 -17.609375 -0.21875 -17.609375 -0.242188 -17.535156 C -0.265625 -17.414062 -0.21875 -17.339844 -0.21875 -17.339844 C 0 -17.125 0.121094 -16.832031 0.121094 -16.519531 L 0.121094 -2.375 C 0.121094 -2.058594 0 -1.769531 -0.21875 -1.550781 C -0.21875 -1.550781 -0.265625 -1.476562 -0.242188 -1.355469 C -0.21875 -1.308594 -0.144531 -1.285156 -0.144531 -1.285156 C 0.582031 -1.1875 1.164062 -0.679688 1.210938 -0.0742188 C 1.210938 -0.0742188 1.210938 -0.046875 1.234375 -0.0234375 C 1.257812 0 1.308594 0 1.308594 0 L 9.640625 0 C 9.617188 0.0234375 9.710938 -0.0742188 9.738281 -0.0742188 C 9.785156 -0.679688 10.367188 -1.1875 11.09375 -1.285156 C 11.09375 -1.285156 11.164062 -1.308594 11.191406 -1.355469 C 11.214844 -1.476562 11.140625 -1.550781 11.140625 -1.550781 Z M 11.140625 -1.550781"/></g></defs><g clip-path="url(#a)"><path fill="#FFF" d="M 153.257812 167.898438 L 187.382812 148.222656 L 221.507812 167.898438 L 221.507812 207.25 L 187.382812 226.925781 L 153.257812 207.25 Z M 153.257812 167.898438"/></g><g clip-path="url(#b)"><path d="M 220.292969 206.65625 L 187.484375 225.660156 L 154.675781 206.65625 L 154.675781 168.652344 L 187.484375 149.632812 L 220.292969 168.652344 L 220.292969 206.65625 M 222.734375 208.078125 L 222.734375 167.230469 L 187.484375 146.804688 L 152.234375 167.230469 L 152.234375 208.078125 L 187.484375 228.503906 Z M 222.734375 208.078125"/></g><g clip-path="url(#c)"><path d="M 157.6875 170.550781 L 187.3125 153.5 L 216.9375 170.550781 L 216.9375 204.648438 L 187.3125 221.699219 L 157.6875 204.648438 Z M 157.6875 170.550781"/></g><g fill="#C2941C"><use x="182.023" y="181.328" xmlns:xlink="http://www.w3.org/1999/xlink" xlink:href="#d" xlink:type="simple" xlink:actuate="onLoad" xlink:show="embed"/></g><g fill="#C2941C"><use x="182.023" y="213.302" xmlns:xlink="http://www.w3.org/1999/xlink" xlink:href="#d" xlink:type="simple" xlink:actuate="onLoad" xlink:show="embed"/></g><path stroke-linecap="round" transform="matrix(2.23764 0 0 1.7561 156.578 187.412)" fill="none" d="M 0.499429 -0.000888016 L 26.987007 -0.000888016" stroke="#FFF"/></svg>